<svg id="Warstwa_1" data-name="Warstwa 1" xmlns="http://www.w3.org/2000/svg" viewBox="0 0 246.7 37.5"><defs><style>.cls-1{fill:#00c;}</style></defs><title>Logo</title><path d="M10.2,37h6V8.3H26.3V3.2H.1V8.3H10.2Z" transform="translate(-0.1 -0.2)"/><path d="M30.5,37h6V24.3H43L49.8,37h6.9L49.3,23.4c3.9-1.4,6.4-5.1,6.4-9.7h0c0-6.5-4.4-10.5-11.6-10.5H30.5Zm6.1-17.4V8.1h6.7c3.8,0,6.2,2.2,6.2,5.7h0c0,3.6-2.2,5.7-6.1,5.7H36.6Z" transform="translate(-0.1 -0.2)"/><path d="M60.5,37h6V3.2h-6Z" transform="translate(-0.1 -0.2)"/><path d="M72.5,37H78V13h.2L88,37h4l9.8-24h.2V37h5.4V3.2h-7L90,29h-.2L79.5,3.2h-7Z" transform="translate(-0.1 -0.2)"/><path d="M166.2,37h6V8.3h10.1V3.2H156.1V8.3h10.1V37Z" transform="translate(-0.1 -0.2)"/><path d="M199.3,37.6c7.8,0,13.5-4.8,14.4-11.7v-.2h-5.9l-.1.2a8.11,8.11,0,0,1-8.4,6.5c-5.9,0-9.7-4.7-9.7-12.3h0c0-7.5,3.8-12.2,9.7-12.2,4.4,0,7.4,2.4,8.4,6.3l.1.4h5.9v-.2c-.9-6.9-6.6-11.7-14.4-11.7-9.7,0-15.9,6.7-15.9,17.5h0C183.4,30.9,189.5,37.6,199.3,37.6Z" transform="translate(-0.1 -0.2)"/><path d="M218.3,37h6V22.3h16.5V37h6V3.2h-6V17.3H224.3V3.2h-6Z" transform="translate(-0.1 -0.2)"/><path class="cls-1" d="M141.8.2A9.69,9.69,0,0,0,133,5.7,9.86,9.86,0,0,0,124.2.2a10.05,10.05,0,0,0-9.9,9.9c0,9.1,18.8,27.6,18.8,27.6s18.8-18.5,18.8-27.6A10.37,10.37,0,0,0,141.8.2Z" transform="translate(-0.1 -0.2)"/></svg>