<svg id="Warstwa_1" data-name="Warstwa 1" xmlns="http://www.w3.org/2000/svg" viewBox="0 0 246.7 37.5"><defs><style>.cls-1{fill:#2bc779;}</style></defs><title>Logo</title><path d="M10.1,36.8h6V8.1H26.2V3H0V8.1H10.1Z" transform="translate(0 0)"/><path d="M30.4,36.8h6V24.1h6.5l6.8,12.7h6.9L49.2,23.2c3.9-1.4,6.4-5.1,6.4-9.7h0C55.6,7,51.2,3,44,3H30.4Zm6.1-17.4V7.9h6.7c3.8,0,6.2,2.2,6.2,5.7h0c0,3.6-2.2,5.7-6.1,5.7H36.5Z" transform="translate(0 0)"/><path d="M60.4,36.8h6V3h-6Z" transform="translate(0 0)"/><path d="M72.4,36.8h5.5v-24h.2l9.8,24h4l9.8-24h.2v24h5.4V3h-7L89.9,28.8h-.2L79.4,3h-7Z" transform="translate(0 0)"/><path d="M166.1,36.8h6V8.1h10.1V3H156V8.1h10.1V36.8Z" transform="translate(0 0)"/><path d="M199.2,37.4c7.8,0,13.5-4.8,14.4-11.7v-.2h-5.9l-.1.2a8.11,8.11,0,0,1-8.4,6.5c-5.9,0-9.7-4.7-9.7-12.3h0c0-7.5,3.8-12.2,9.7-12.2,4.4,0,7.4,2.4,8.4,6.3l.1.4h5.9v-.2c-.9-6.9-6.6-11.7-14.4-11.7-9.7,0-15.9,6.7-15.9,17.5h0C183.3,30.7,189.4,37.4,199.2,37.4Z" transform="translate(0 0)"/><path d="M218.2,36.8h6V22.1h16.5V36.8h6V3h-6V17.1H224.2V3h-6Z" transform="translate(0 0)"/><path class="cls-1" d="M141.7,0a9.7,9.7,0,0,0-8.8,5.5A9.87,9.87,0,0,0,124.1,0a10.05,10.05,0,0,0-9.9,9.9c0,9.1,18.8,27.6,18.8,27.6S151.8,19,151.8,9.9A10.38,10.38,0,0,0,141.7,0Z" transform="translate(0 0)"/></svg>