<svg xmlns="http://www.w3.org/2000/svg" viewBox="0 0 668.06 1024"><defs><style>.cls-1,.cls-3,.cls-4{fill:#e64623;}.cls-1{opacity:0.35;}.cls-2{fill:#096861;}.cls-4{opacity:0.63;}.cls-5{fill:#fff;}.cls-6{fill:#1d8b6a;}</style></defs><g id="Warstwa_2" data-name="Warstwa 2"><g id="Warstwa_1-2" data-name="Warstwa 1"><rect class="cls-1" width="668.06" height="1024"/><path class="cls-2" d="M322.26,670.47H457a52.39,52.39,0,0,1,52.39,52.39V1024a0,0,0,0,1,0,0H269.88a0,0,0,0,1,0,0V722.85A52.39,52.39,0,0,1,322.26,670.47Z"/><polygon class="cls-3" points="323.25 445.69 323.25 626.21 291 535.95 323.25 445.69"/><polygon class="cls-4" points="323.25 445.69 323.25 626.21 355.5 535.95 323.25 445.69"/><circle class="cls-5" cx="190.11" cy="324.05" r="78.2"/><path class="cls-2" d="M190.11,464.05c-77.2,0-140-62.8-140-140s62.81-140,140-140,140,62.81,140,140S267.3,464.05,190.11,464.05Zm0-273.15C116.69,190.9,57,250.63,57,324.05s59.73,133.14,133.15,133.14,133.14-59.73,133.14-133.14S263.52,190.9,190.11,190.9Z"/><circle class="cls-3" cx="190.11" cy="324.05" r="39.91" transform="translate(-148.58 486.65) rotate(-85.25)"/><path class="cls-2" d="M151.49,872.51V753.43h0A119.08,119.08,0,0,0,32.41,872.51H151.49Z"/><rect class="cls-2" x="32.4" y="872.51" width="119.08" height="151.49"/><polygon class="cls-6" points="270.57 888.72 270.57 753.43 151.49 753.43 151.49 888.72 151.49 1024 270.57 1024 270.57 888.72"/><path class="cls-5" d="M389.65,872.51h0A119.09,119.09,0,0,0,270.57,753.43h0V991.59h0A119.08,119.08,0,0,0,389.65,872.51Z"/><path class="cls-3" d="M151.49,872.51h0A119.07,119.07,0,0,0,270.57,991.59h0V753.43h0A119.08,119.08,0,0,0,151.49,872.51Z"/><path class="cls-6" d="M191.32,32.41H0V191.32H350.23A158.9,158.9,0,0,0,191.32,32.41Z"/><path class="cls-6" d="M585.48,200.77h0a64.91,64.91,0,0,1-64.91,64.91h0v79.47h0A144.38,144.38,0,0,0,665,200.77H585.48Z"/><path class="cls-3" d="M353.53,191.32h0A155.62,155.62,0,0,0,509.15,346.93h0V191.32Z"/><path class="cls-2" d="M668.06,191.32V32.41h0A158.91,158.91,0,0,0,509.15,191.32H668.06Z"/><polygon class="cls-6" points="165.96 482.54 73.97 482.54 119.97 420.64 165.96 482.54"/><polygon class="cls-6" points="165.96 544.43 73.97 544.43 119.97 482.54 165.96 544.43"/><polygon class="cls-6" points="165.96 603.36 73.97 603.36 119.97 541.46 165.96 603.36"/><polygon class="cls-5" points="367.55 335.42 406.4 268.12 445.26 335.42 367.55 335.42"/><polygon class="cls-5" points="267.73 717.3 291.01 676.97 314.3 717.3 267.73 717.3"/><polygon class="cls-5" points="79.68 129.5 94.48 103.85 109.29 129.5 79.68 129.5"/><polygon class="cls-5" points="105.16 129.5 119.97 103.85 134.78 129.5 105.16 129.5"/><polygon class="cls-5" points="130.65 129.5 145.46 103.85 160.26 129.5 130.65 129.5"/><path class="cls-4" d="M668.06,636.14V790.19A158.65,158.65,0,0,1,509.42,948.83V794.78A158.53,158.53,0,0,1,668.06,636.14Z"/><path class="cls-3" d="M604.39,649.44v77.08a158.66,158.66,0,0,1-95,145.33V794.78A158.7,158.7,0,0,1,604.39,649.44Z"/><circle class="cls-6" cx="427.93" cy="666.91" r="65.16"/><polygon class="cls-5" points="577.74 918.79 604.46 872.51 631.18 918.79 577.74 918.79"/><polygon class="cls-5" points="542.39 448.73 532.62 465.65 522.86 448.73 542.39 448.73"/><polygon class="cls-5" points="455.02 68.18 445.26 85.1 435.49 68.18 455.02 68.18"/><polygon class="cls-5" points="269.58 666.9 257.96 687.03 246.34 666.9 269.58 666.9"/><rect class="cls-5" x="68.13" y="653.15" width="33.88" height="33.88"/><path class="cls-2" d="M543.34,568.41h64.91V503.5h0A64.91,64.91,0,0,0,543.34,568.41Z"/><circle class="cls-3" cx="605.09" cy="568.41" r="16.97"/></g></g></svg>