<svg id="Layer_1" data-name="Layer 1" xmlns="http://www.w3.org/2000/svg" viewBox="0 0 302 415.5"><defs><style>.cls-1{fill:#096861;}.cls-2{fill:#e64623;}</style></defs><title>logo3lo</title><g id="Layer_1-2" data-name="Layer 1-2"><polygon class="cls-1" points="3.5 0 299.5 0 299.5 59 63.5 60 63.5 89 3.5 89 3.5 0"/><polygon class="cls-2" points="238.5 89 165.5 162 239.5 236 299.5 236 299.5 211 250 161.5 299 112.5 299 88.5 239 88.5 238.5 89"/><path class="cls-2" d="M237.51,254a88.39,88.39,0,0,1,1,13,87,87,0,0,1-173.94,0,88.39,88.39,0,0,1,1-13H.37C.13,257.47,0,261,0,264.5a151,151,0,0,0,302,0c0-3.53-.13-7-.37-10.5Z"/></g></svg>