<svg xmlns="http://www.w3.org/2000/svg" viewBox="0 0 126.11 138.47"><defs><style>.cls-1{fill:#e64623;}.cls-2,.cls-3{fill:#010101;}.cls-2{opacity:0.35;}.cls-4{fill:#7f5533;}</style></defs><g id="Warstwa_2" data-name="Warstwa 2"><g id="Warstwa_1-2" data-name="Warstwa 1"><rect class="cls-1" x="33.16" y="73.89" width="61.96" height="64.58"/><polygon class="cls-2" points="33.16 73.89 65.74 138.47 95.13 73.89 33.16 73.89"/><polygon class="cls-3" points="56.73 120.59 73.88 120.59 65.74 138.47 56.73 120.59"/><polygon class="cls-4" points="46.25 73.89 46.25 41.31 27.64 41.31 27.64 22.98 19.49 22.98 19.49 40.73 10.47 40.73 10.47 0 0 0 0 52.65 38.11 52.65 38.11 73.89 46.25 73.89"/><polygon class="cls-4" points="79.85 73.89 79.85 41.31 98.47 41.31 98.47 22.98 106.61 22.98 106.61 40.73 115.63 40.73 115.63 0 126.11 0 126.11 52.65 88 52.65 88 73.89 79.85 73.89"/></g></g></svg>