<svg xmlns="http://www.w3.org/2000/svg" viewBox="0 0 177.29 361.81"><defs><style>.cls-1{fill:#096861;}.cls-2{fill:#1d8b6a;}.cls-3{fill:#fce43c;}</style></defs><g id="Warstwa_2" data-name="Warstwa 2"><g id="Warstwa_1-2" data-name="Warstwa 1"><polygon class="cls-1" points="140.27 187.45 88.65 65.43 88.65 187.45 140.27 187.45"/><polygon class="cls-2" points="37.02 187.45 88.65 65.43 88.65 187.45 37.02 187.45"/><polygon class="cls-2" points="125.15 187.45 159.04 264.62 88.65 264.62 88.65 187.45 125.15 187.45"/><polygon class="cls-1" points="52.15 187.45 18.25 264.62 88.65 264.62 88.65 187.45 52.15 187.45"/><polygon class="cls-1" points="134.61 264.62 177.29 361.81 88.65 361.81 88.65 264.62 134.61 264.62"/><polygon class="cls-2" points="42.68 264.62 0 361.81 88.65 361.81 88.65 264.62 42.68 264.62"/><g id="Layer_1-2" data-name="Layer 1-2"><polygon class="cls-3" points="69.81 0 107.62 0 107.62 7.54 77.47 7.66 77.47 11.37 69.81 11.37 69.81 0"/><polygon class="cls-3" points="99.82 11.37 90.5 20.69 99.95 30.15 107.62 30.15 107.62 26.95 101.29 20.63 107.55 14.37 107.55 11.3 99.89 11.3 99.82 11.37"/><path class="cls-3" d="M99.7,32.45a13.11,13.11,0,0,1,.13,1.66,11.11,11.11,0,0,1-22.22,0,11.48,11.48,0,0,1,.12-1.66H69.41c0,.44,0,.89,0,1.34a19.29,19.29,0,1,0,38.58,0c0-.45,0-.9,0-1.34Z"/></g></g></g></svg>