<?xml version="1.0" encoding="utf-8"?>
<!-- Generator: Adobe Illustrator 25.1.0, SVG Export Plug-In . SVG Version: 6.00 Build 0)  -->
<svg version="1.1" id="Warstwa_1" xmlns="http://www.w3.org/2000/svg" xmlns:xlink="http://www.w3.org/1999/xlink" x="0px" y="0px"
	 viewBox="0 0 247 38" style="enable-background:new 0 0 247 38;" xml:space="preserve">
<style type="text/css">
	.st0{fill:#FF5A79;}
</style>
<path d="M10.2,37h6V8.3h10.1V3.2H0.1v5.1h10.1V37z"/>
<path d="M30.5,37h6V24.3h6.5L49.8,37h6.9l-7.4-13.6c3.9-1.4,6.4-5.1,6.4-9.7v0c0-6.5-4.4-10.5-11.6-10.5H30.5V37z M36.6,19.6V8.1
	h6.7c3.8,0,6.2,2.2,6.2,5.7v0c0,3.6-2.2,5.7-6.1,5.7H36.6z"/>
<path d="M60.5,37h6V3.2h-6V37z"/>
<path d="M72.5,37H78V13h0.2l9.8,24H92l9.8-24h0.2v24h5.4V3.2h-7L90,29h-0.2L79.5,3.2h-7V37z"/>
<path d="M166.2,37h6V8.3h10.1V3.2h-26.2v5.1h10.1V37z"/>
<path d="M199.3,37.6c7.8,0,13.5-4.8,14.4-11.7l0-0.2h-5.9l-0.1,0.2c-1.1,4.2-4.1,6.5-8.4,6.5c-5.9,0-9.7-4.7-9.7-12.3v0
	c0-7.5,3.8-12.2,9.7-12.2c4.4,0,7.4,2.4,8.4,6.3l0.1,0.4h5.9l0-0.2c-0.9-6.9-6.6-11.7-14.4-11.7c-9.7,0-15.9,6.7-15.9,17.5v0
	C183.4,30.9,189.5,37.6,199.3,37.6z"/>
<path d="M218.3,37h6V22.3h16.5V37h6V3.2h-6v14.1h-16.5V3.2h-6V37z"/>
<path class="st0" d="M141.8,0.2c-3.9,0-7.2,2.2-8.8,5.5c-1.6-3.2-4.9-5.5-8.8-5.5c-5.4,0-9.9,4.6-9.9,9.9c0,9.1,18.8,27.6,18.8,27.6
	s18.8-18.5,18.8-27.6C151.8,4.9,147.2,0.2,141.8,0.2z"/>
</svg>
